<svg xmlns="http://www.w3.org/2000/svg" xmlns:xlink="http://www.w3.org/1999/xlink" width="50" zoomAndPan="magnify" viewBox="0 0 37.5 37.499999" height="50" preserveAspectRatio="xMidYMid meet" version="1.0"><defs><clipPath id="d47c6f73fb"><path d="M 0 0 L 37.007812 0 L 37.007812 37.007812 L 0 37.007812 Z M 0 0 " clip-rule="nonzero"/></clipPath><clipPath id="4b9e2f996b"><path d="M 4.210938 4.425781 L 33.460938 4.425781 L 33.460938 32.925781 L 4.210938 32.925781 Z M 4.210938 4.425781 " clip-rule="nonzero"/></clipPath></defs><g clip-path="url(#d47c6f73fb)"><path fill="#ffffff" d="M 0 0 L 37.5 0 L 37.5 37.5 L 0 37.5 Z M 0 0 " fill-opacity="1" fill-rule="nonzero"/><path fill="#ffffff" d="M 0 0 L 37.5 0 L 37.5 37.5 L 0 37.5 Z M 0 0 " fill-opacity="1" fill-rule="nonzero"/></g><g clip-path="url(#4b9e2f996b)"><path fill="#2da3a9" d="M 32.765625 11.445312 L 22.539062 11.445312 L 25.320312 10.410156 C 25.414062 10.378906 25.496094 10.324219 25.566406 10.253906 C 26.21875 9.609375 26.574219 8.753906 26.574219 7.84375 C 26.574219 6.933594 26.21875 6.074219 25.566406 5.429688 C 24.914062 4.785156 24.046875 4.433594 23.128906 4.433594 C 22.207031 4.433594 21.339844 4.785156 20.691406 5.429688 C 20.621094 5.5 20.566406 5.582031 20.53125 5.675781 L 18.828125 10.152344 L 17.125 5.675781 C 17.089844 5.582031 17.035156 5.5 16.964844 5.429688 C 16.3125 4.785156 15.449219 4.433594 14.527344 4.433594 C 13.605469 4.433594 12.738281 4.785156 12.089844 5.429688 C 11.4375 6.074219 11.078125 6.933594 11.078125 7.84375 C 11.078125 8.753906 11.4375 9.609375 12.089844 10.253906 C 12.15625 10.324219 12.242188 10.378906 12.335938 10.410156 L 15.117188 11.445312 L 4.902344 11.445312 C 4.519531 11.445312 4.210938 11.753906 4.210938 12.132812 L 4.210938 15.851562 C 4.210938 16.230469 4.519531 16.535156 4.902344 16.535156 L 6.035156 16.535156 L 6.035156 32.238281 C 6.035156 32.617188 6.34375 32.921875 6.726562 32.921875 L 30.925781 32.921875 C 31.308594 32.921875 31.621094 32.617188 31.621094 32.238281 L 31.621094 16.535156 L 32.765625 16.535156 C 33.148438 16.535156 33.457031 16.230469 33.457031 15.851562 L 33.457031 12.132812 C 33.457031 11.753906 33.148438 11.445312 32.765625 11.445312 Z M 21.773438 6.304688 C 22.148438 5.980469 22.625 5.804688 23.128906 5.804688 C 23.679688 5.804688 24.195312 6.015625 24.585938 6.402344 C 24.976562 6.785156 25.191406 7.296875 25.191406 7.84375 C 25.191406 8.339844 25.011719 8.8125 24.679688 9.183594 L 20.015625 10.921875 Z M 12.464844 7.84375 C 12.464844 7.296875 12.679688 6.785156 13.070312 6.402344 C 13.457031 6.015625 13.976562 5.804688 14.527344 5.804688 C 15.03125 5.804688 15.507812 5.980469 15.882812 6.304688 L 17.640625 10.921875 L 12.972656 9.183594 C 12.644531 8.8125 12.464844 8.339844 12.464844 7.84375 Z M 5.597656 12.820312 L 15.378906 12.820312 L 15.378906 15.164062 L 5.597656 15.164062 Z M 7.421875 16.535156 L 15.378906 16.535156 L 15.378906 31.550781 L 7.421875 31.550781 Z M 16.765625 31.550781 L 16.765625 12.816406 L 20.890625 12.816406 L 20.890625 31.550781 Z M 30.234375 31.550781 L 22.277344 31.550781 L 22.277344 16.535156 L 30.234375 16.535156 Z M 32.070312 15.164062 L 22.277344 15.164062 L 22.277344 12.816406 L 32.070312 12.816406 Z M 32.070312 15.164062 " fill-opacity="1" fill-rule="nonzero"/></g></svg>